<?xml version="1.0" encoding="UTF-8" standalone="no"?>
<!-- Generated by IcoMoon.io -->

<svg
   xmlns:dc="http://purl.org/dc/elements/1.1/"
   xmlns:cc="http://creativecommons.org/ns#"
   xmlns:rdf="http://www.w3.org/1999/02/22-rdf-syntax-ns#"
   xmlns:svg="http://www.w3.org/2000/svg"
   xmlns="http://www.w3.org/2000/svg"
   xmlns:sodipodi="http://sodipodi.sourceforge.net/DTD/sodipodi-0.dtd"
   xmlns:inkscape="http://www.inkscape.org/namespaces/inkscape"
   version="1.1"
   width="1024"
   height="1024"
   viewBox="0 0 1024 1024"
   id="svg3401"
   inkscape:version="0.91 r13725"
   sodipodi:docname="beretta-logo.svg">
  <metadata
     id="metadata3410">
    <rdf:RDF>
      <cc:Work
         rdf:about="">
        <dc:format>image/svg+xml</dc:format>
        <dc:type
           rdf:resource="http://purl.org/dc/dcmitype/StillImage" />
        <dc:title></dc:title>
      </cc:Work>
    </rdf:RDF>
  </metadata>
  <defs
     id="defs3408" />
  <sodipodi:namedview
     pagecolor="#ffffff"
     bordercolor="#666666"
     borderopacity="1"
     objecttolerance="10"
     gridtolerance="10"
     guidetolerance="10"
     inkscape:pageopacity="0"
     inkscape:pageshadow="2"
     inkscape:window-width="1920"
     inkscape:window-height="1016"
     id="namedview3406"
     showgrid="false"
     inkscape:zoom="0.40234375"
     inkscape:cx="-97.26756"
     inkscape:cy="384.21626"
     inkscape:window-x="0"
     inkscape:window-y="27"
     inkscape:window-maximized="1"
     inkscape:current-layer="svg3401" />
  <g
     id="icomoon-ignore" />
  <path
     style="fill:#000000"
     d="M 472.96218,1015.9945 C 384.21196,1009.4337 291.59888,975.82357 219.5876,924.04258 175.04465,892.01324 139.45201,856.92723 105.91461,811.9877 88.007508,787.99256 77.806808,771.63787 63.592208,744.13266 c -13.1018,-25.35204 -17.929,-36.33924 -26.6826,-60.73338 -41.3125004,-115.12787 -39.9046004,-237.49862 4.0693,-353.67864 8.2812,-21.87922 27.2472,-60.65324 39.4822,-80.71736 C 124.86351,176.18814 193.01512,110.81326 266.8561,70.202666 350.57506,24.159456 445.71121,2.1138519 538.04344,7.3612689 666.40126,14.656086 780.33206,65.609706 870.43109,156.01599 c 37.92316,38.05249 67.95402,79.32183 91.42124,125.63394 27.72329,54.71137 43.38937,105.42698 52.17817,168.91568 3.74,27.01702 4.1105,93.11071 0.6623,118.15722 -9.7271,70.65508 -26.38859,124.29035 -55.92085,180.01548 -59.56792,112.40009 -160.47633,199.05317 -279.82444,240.29346 -66.643,23.02833 -136.14374,32.12563 -205.98533,26.96273 z m 77.71839,-29.02133 c 80.84081,-6.8046 152.39915,-31.201 221.78174,-75.61219 69.00391,-44.16869 130.43325,-113.35054 166.78469,-187.83323 24.64366,-50.4939 37.94852,-94.13102 45.65846,-149.75007 3.90892,-28.19865 4.28589,-90.5854 0.71398,-118.15722 C 976.07425,381.9408 954.26234,320.47622 915.43642,257.84928 885.61912,209.7534 840.52032,161.42788 793.42026,127.10313 747.44599,93.598816 684.31269,63.597756 632.47138,50.619916 533.08325,25.739306 431.40428,31.746556 339.6404,67.920536 204.68844,121.11957 102.27641,229.96565 58.088808,367.16051 c -8.6497,26.85588 -14.2652,52.62337 -18.7272,85.93252 -4.1661,31.09967 -4.1713,86.34911 -0.011,117.52537 8.8339,66.20141 27.2177,121.66381 58.6427,176.91991 22.039802,38.75371 44.424102,67.99718 77.324002,101.01789 50.99345,51.18077 104.29296,85.15928 175.35775,111.79077 36.20182,13.5667 87.2133,24.4596 126.71034,27.0576 15.16933,0.9978 59.40997,0.7374 73.29539,-0.4314 z m -37.82781,-22.2681 c -11.07471,-0.9609 -20.23202,-1.8794 -20.34958,-2.0413 -0.11753,-0.1618 -6.33605,-11.9519 -13.81884,-26.20029 -7.48279,-14.2484 -13.99784,-26.33808 -14.47787,-26.86604 -0.48004,-0.52797 -1.587,9.13944 -2.45992,21.48314 -2.25319,31.86179 -1.58135,29.80519 -9.44856,28.92289 -3.5781,-0.4012 -11.27739,-1.1086 -17.10953,-1.5719 l -10.60389,-0.8424 0.82244,-12.14249 c 2.10253,-31.0419 9.43854,-121.6697 9.88487,-122.11604 0.85644,-0.85644 59.50146,4.47693 64.81898,5.89484 20.96239,5.58962 32.57238,22.09067 30.57703,43.45853 -1.49281,15.98616 -12.28354,30.18218 -25.66209,33.7604 -3.0391,0.81283 -5.52563,1.86839 -5.52563,2.34569 0,0.4773 7.9614,13.27528 17.69199,28.43998 16.95736,26.42719 18.86337,29.77299 16.74421,29.39229 -0.52128,-0.094 -10.00891,-0.9565 -21.08361,-1.9173 z m -23.62402,-83.05819 c 4.50936,-4.32023 6.07829,-11.40683 3.95186,-17.84995 -1.8142,-5.49707 -8.66672,-9.37818 -18.31669,-10.37414 l -6.62176,-0.68343 -0.74377,5.5303 c -0.40906,3.04167 -1.12562,10.56969 -1.59234,16.72893 l -0.84859,11.19862 10.19409,-0.46293 c 9.18422,-0.41708 10.56887,-0.822 13.9772,-4.0874 z m 89.88539,77.07369 c 0,-0.2694 -4.87766,-21.45239 -10.83924,-47.07339 -18.10275,-77.79967 -19.32032,-83.19014 -18.88821,-83.62226 0.46984,-0.46983 68.16685,-16.40656 72.00427,-16.95071 2.16517,-0.30701 2.8858,1.41598 5.84203,13.96784 2.31903,9.84636 2.92903,14.4561 1.95317,14.76001 -0.78048,0.24308 -9.38044,2.25158 -19.11104,4.46333 -9.73059,2.21175 -18.17791,4.472 -18.77182,5.02277 -1.13203,1.04983 2.77859,21.47474 4.10598,21.44522 0.42074,-0.009 9.00089,-1.96215 19.06699,-4.33955 10.0661,-2.37738 18.53059,-4.09392 18.81,-3.81451 0.60614,0.60614 6.39835,24.58623 6.45012,26.70391 0.021,0.85947 -7.64021,3.31757 -18.39915,5.90333 -10.13935,2.43685 -18.68074,4.6762 -18.98088,4.97634 -0.53561,0.53562 4.03269,21.03048 4.87556,21.87338 0.23652,0.2365 8.79909,-1.5387 19.02796,-3.9448 10.22887,-2.4062 19.3214,-4.3748 20.20563,-4.3748 1.52431,0 8.35512,27.163 7.10655,28.2594 -0.52944,0.465 -72.23071,17.23429 -73.6892,17.23429 -0.42279,0 -0.76872,-0.2204 -0.76872,-0.4898 z M 340.26937,930.62248 c -46.89767,-20.34864 -45.70436,-19.769 -45.05218,-21.88261 0.33494,-1.08551 12.28669,-28.70119 26.55943,-61.36819 21.36543,-48.90053 26.36042,-59.34983 28.27094,-59.14146 1.69104,0.18442 65.69185,27.26191 68.31545,28.90293 0.48806,0.30527 -11.23993,27.07925 -11.8617,27.07925 -0.26226,0 -8.81954,-3.70296 -19.01621,-8.22878 -10.19665,-4.52584 -18.66585,-8.08004 -18.82044,-7.89821 -1.33023,1.56461 -8.23566,19.09828 -7.90834,20.08023 0.23309,0.69927 8.08813,4.63117 17.45564,8.73755 10.45613,4.58358 16.89154,8.08807 16.66847,9.07703 -0.65001,2.88151 -9.35382,23.06162 -10.45215,24.23364 -0.62157,0.66328 -7.8282,-1.80914 -17.24121,-5.91506 -8.89528,-3.88008 -16.93752,-7.23627 -17.87164,-7.4582 -1.78468,-0.424 -10.93655,18.4066 -9.82214,20.20975 0.3306,0.53492 8.85744,4.5923 18.94855,9.01638 l 18.34745,8.04385 -1.69277,3.9101 c -0.93102,2.1505 -3.52462,8.1751 -5.76354,13.388 -2.23892,5.2128 -4.15025,9.5739 -4.24742,9.6913 -0.0972,0.1174 -11.26444,-4.5974 -24.81619,-10.4775 z m 372.16655,-70.68254 c -14.5959,-23.30841 -27.1514,-43.27803 -27.90112,-44.37693 -1.18311,-1.73416 -2.97891,-0.98006 -13.59872,5.71046 l -12.23559,7.70849 -7.12659,-11.02456 c -3.91961,-6.0635 -7.33176,-11.87756 -7.58256,-12.92012 -0.31474,-1.30843 10.41056,-8.66099 34.62616,-23.73742 19.29517,-12.01302 36.86625,-22.97523 39.04687,-24.36047 l 3.96472,-2.51861 7.70407,12.35518 c 8.88323,14.24625 9.55046,12.05311 -6.74471,22.16923 l -9.70177,6.02291 2.87651,4.71865 c 1.58208,2.59527 13.5325,21.61345 26.5565,42.26262 13.02398,20.64917 24.27665,38.65887 25.00594,40.02155 1.18765,2.21914 -0.0244,3.33746 -11.6173,10.71932 -7.11881,4.53292 -13.79629,8.55375 -14.83886,8.93515 -1.3933,0.50972 -8.92731,-10.53565 -28.43355,-41.68545 z m -470.38775,9.65694 c -9.74813,-2.49256 -19.49775,-9.22558 -42.91842,-29.63914 -21.2757,-18.544 -24.25306,-21.58624 -22.85368,-23.35172 2.74729,-3.46606 43.34241,-50.15841 65.77479,-75.65393 l 21.36135,-24.27822 21.22166,18.86479 c 11.67193,10.37564 22.79799,20.73216 24.72459,23.0145 5.4743,6.48516 8.10844,13.46794 8.1392,21.57612 0.0334,8.80082 -3.00992,15.5731 -10.53005,23.43264 -7.23586,7.56244 -13.06634,10.32135 -21.81242,10.32135 -6.80177,0 -7.08569,0.12258 -5.17468,2.23422 3.50018,3.86766 7.15965,13.36206 7.17567,18.61706 0.0315,10.33041 -11.11356,26.955 -21.68661,32.34896 -5.44508,2.77788 -17.37864,4.05848 -23.4214,2.51337 z m 10.08006,-37.99767 c 2.6,-2.88411 3.47521,-5.16065 3.47521,-9.03947 0,-4.72154 -0.79196,-5.98933 -8.86829,-14.19685 l -8.8683,-9.01232 -5.14176,5.68671 c -2.82796,3.12769 -7.18397,8.14323 -9.68,11.14564 l -4.53827,5.45894 5.59525,4.91927 c 12.39489,10.89744 21.30076,12.4984 28.02616,5.03808 z m 24.06756,-43.1898 c 5.43348,-2.90791 8.69074,-8.02629 7.85837,-12.34845 -0.80834,-4.19731 -5.60439,-11.33907 -9.19447,-13.69138 -3.16373,-2.07296 -3.26801,-2.02772 -8.1593,3.53975 -8.77916,9.99278 -11.33273,13.71352 -10.42248,15.18634 1.46765,2.3747 12.27839,8.77704 14.82058,8.77704 1.29971,0 3.59348,-0.65848 5.0973,-1.4633 z m 536.1888,-12.40248 c -22.06221,-18.09039 -40.29564,-32.89162 -40.51874,-32.89162 -0.22309,0 -4.23615,4.8337 -8.91792,10.74157 -4.68177,5.90786 -8.88512,10.74156 -9.34078,10.74156 -0.96603,0 -21.20414,-16.05553 -22.13343,-17.55913 -0.34499,-0.55822 10.22915,-14.32242 23.49808,-30.58711 13.26894,-16.26467 26.1867,-32.24094 28.70614,-35.50282 2.51944,-3.26187 5.04604,-5.96306 5.61468,-6.00264 1.40725,-0.0979 22.15739,16.7204 22.26165,18.04347 0.0457,0.58042 -3.90872,5.92423 -8.78769,11.87512 -4.87895,5.9509 -8.71748,10.93638 -8.53006,11.07884 0.18743,0.14247 11.42987,9.27263 24.9832,20.28926 13.55333,11.01664 31.60863,25.66887 40.12291,32.56052 8.51427,6.89165 15.48049,13.06237 15.48049,13.71273 0,1.24789 -19.9146,25.43897 -21.4374,26.04088 -0.4884,0.19304 -18.9389,-14.45024 -41.00113,-32.54063 z m -324.8897,9.39166 c -29.57781,-5.52811 -55.06677,-18.64389 -76.6309,-39.43176 -14.2071,-13.69569 -22.06657,-24.02874 -30.08501,-39.55354 -7.64423,-14.8003 -11.90992,-27.28302 -14.55347,-42.58802 -2.10616,-12.19363 -2.77119,-34.34918 -1.35632,-45.18575 2.01726,-15.45039 8.38135,-35.33718 15.97943,-49.93323 2.34702,-4.50868 4.47443,-8.66453 4.72757,-9.23521 0.25314,-0.57068 -2.43258,0.4283 -5.96826,2.21997 -12.37067,6.26869 -33.89419,13.35035 -40.57616,13.35035 -4.41685,0 -2.81,1.93375 5.34755,6.43547 l 7.89821,4.3586 0.40093,14.82238 c 0.22117,8.1767 -0.10609,14.82238 -0.72991,14.82238 -0.62196,0 -4.62961,-1.42167 -8.90588,-3.15928 -4.27628,-1.73761 -8.05913,-3.15928 -8.40634,-3.15928 -1.15992,0 -5.92522,10.34323 -5.13113,11.13731 0.43047,0.43047 5.73035,3.68541 11.77751,7.2332 l 10.99482,6.45053 0.35604,14.75933 c 0.20891,8.66011 -0.13672,14.75931 -0.83636,14.75931 -0.65583,0 -9.81139,-3.6915 -20.34569,-8.20332 l -19.15327,-8.20331 -19.48836,8.20331 c -10.71859,4.51182 -19.77856,8.20332 -20.13326,8.20332 -0.3547,0 -0.63134,-6.68188 -0.61476,-14.84863 l 0.0302,-14.84864 11.34327,-6.68928 c 6.23876,-3.67911 11.34322,-7.30834 11.34322,-8.06498 0,-1.51092 -4.92637,-9.88815 -5.81489,-9.88815 -0.30464,0 -4.05266,1.42167 -8.32894,3.15928 -4.27627,1.73761 -7.96134,3.15928 -8.18903,3.15928 -0.22769,0 -0.41322,-6.68188 -0.4123,-14.84863 l 0.001,-14.84864 8.2112,-4.42299 c 8.74038,-4.7083 10.06463,-6.31857 5.19622,-6.31857 -10.69448,0 -43.56779,-13.61108 -58.67086,-24.29246 -9.54439,-6.75009 -26.26523,-22.93282 -33.65785,-32.57465 -29.0081,-37.83382 -37.6704,-90.40533 -22.5925,-137.11293 11.56422,-35.82309 37.85371,-67.14506 71.66359,-85.38188 9.42491,-5.08374 30.44613,-12.86917 39.16314,-14.50449 l 4.58497,-0.86014 0,-35.20445 0,-35.20445 -15.09794,-0.35482 -15.09793,-0.35483 11.18539,-19.21733 c 6.15198,-10.56952 18.72341,-32.34429 27.93652,-48.38835 9.98186,-17.38283 17.21275,-28.70937 17.89352,-28.0286 0.62834,0.62834 13.33484,22.4031 28.23666,48.38835 l 27.09422,47.24593 -15.18901,0.35499 -15.18902,0.35498 0.33586,34.94977 0.33584,34.94978 10.74157,2.78096 c 13.59912,3.52078 18.67449,5.4092 30.37863,11.30312 41.55987,20.92859 71.54337,60.13471 80.37769,105.10104 3.22319,16.4059 2.96957,45.40808 -0.53048,60.66067 -3.01724,13.14861 -8.5023,27.6315 -14.8654,39.25104 -2.37888,4.34402 -4.03545,7.89821 -3.68125,7.89821 0.35419,0 4.18195,-1.78717 8.50616,-3.9715 9.26025,-4.67771 21.90013,-9.12276 31.76474,-11.17064 l 7.05841,-1.46533 0,-162.89056 0,-162.89057 -15.11625,-0.35482 -15.11627,-0.35483 27.60339,-47.79182 c 15.18186,-26.285504 27.9414,-47.895004 28.35453,-48.021124 0.41314,-0.12611 13.17873,21.38021 28.36799,47.791834 l 27.61685,48.02111 -14.949,0.35483 -14.94898,0.35482 0,162.95609 0,162.95609 3.47521,0.73207 c 8.76356,1.84612 29.43943,8.79768 35.9798,12.09698 3.97668,2.00606 7.3954,3.64737 7.59718,3.64737 0.20177,0 -2.59238,-6.11321 -6.20925,-13.58492 -22.8869,-47.27982 -19.47142,-102.85624 9.02824,-146.90671 20.44825,-31.60583 55.05653,-56.19238 90.0851,-63.9986 l 10.42564,-2.32339 0,-35.07954 0,-35.07954 -15.09931,0 -15.09932,0 20.95081,-36.33177 c 11.52293,-19.98247 24.09441,-41.9081 27.93659,-48.72361 5.55503,-9.85386 7.29273,-12.05386 8.48437,-10.74157 0.82421,0.90766 9.36014,15.29839 18.96872,31.97941 9.6086,16.68102 21.63926,37.55739 26.73485,46.39193 5.09557,8.83454 9.26467,16.36944 9.26467,16.7442 0,0.37478 -6.53971,0.68141 -14.5327,0.68141 l -14.53271,0 0,35.28357 0,35.28358 4.10707,0.88271 c 7.85307,1.68784 26.9002,8.47844 34.4362,12.27703 41.63116,20.98459 72.82454,62.41812 80.87029,107.41836 3.23399,18.08792 2.17978,47.49786 -2.31389,64.55104 -3.90004,14.80047 -13.3296,35.10117 -22.39635,48.21671 -7.31663,10.58387 -23.16682,26.74439 -34.64182,35.32004 -14.80283,11.06268 -40.13389,22.36547 -56.93244,25.40345 -7.52342,1.36059 -7.60765,1.80586 -0.99427,5.25576 12.3391,6.43674 11.45539,4.83578 11.68142,21.16231 0.12727,9.19319 -0.27417,14.59751 -1.08432,14.59751 -0.70752,0 -4.50107,-1.42167 -8.43011,-3.15928 -3.92903,-1.73761 -7.53689,-3.15928 -8.01746,-3.15928 -0.48058,0 -2.19463,2.35015 -3.80901,5.22255 -2.4075,4.28358 -2.61975,5.41 -1.18049,6.2652 0.96511,0.57346 6.30412,3.79958 11.86446,7.16915 l 10.10971,6.12649 0.35604,14.77815 c 0.20892,8.67192 -0.13666,14.77814 -0.83636,14.77814 -0.65583,0 -9.81139,-3.6915 -20.34569,-8.20332 l -19.15327,-8.20331 -19.48836,8.20331 c -10.71859,4.51182 -19.77856,8.20332 -20.13326,8.20332 -0.3547,0 -0.64491,-6.69932 -0.64491,-14.88739 l 0,-14.88739 11.86211,-6.85662 11.8621,-6.85662 -2.63607,-5.42583 c -1.44983,-2.98421 -3.10856,-5.42583 -3.68605,-5.42583 -0.57748,0 -4.42773,1.42167 -8.5561,3.15928 -4.12836,1.73761 -7.80759,3.15928 -8.17606,3.15928 -0.36846,0 -0.66513,-6.68188 -0.65927,-14.84863 l 0.0101,-14.84864 8.21753,-4.3649 c 8.82696,-4.68862 8.75268,-5.4831 -0.65656,-7.02236 -7.37285,-1.20614 -25.19788,-7.49453 -34.40016,-12.13586 -3.97613,-2.00569 -7.51956,-3.64672 -7.87376,-3.64672 -0.35419,0 1.30237,3.5542 3.68125,7.89821 14.38254,26.26367 20.165,55.35848 17.12325,86.15655 -1.80833,18.3093 -5.80395,32.84366 -13.37814,48.66384 -11.12024,23.22678 -25.93795,41.55367 -45.18765,55.88907 -17.73832,13.20989 -31.75452,19.93725 -53.91789,25.87895 -15.43172,4.13704 -46.5917,5.28216 -62.55383,2.29885 z m 51.17836,-35.27979 c 10.44901,-2.25606 25.35511,-8.31335 36.42042,-14.79995 9.85702,-5.77826 31.30713,-27.50519 37.21696,-37.69723 12.03292,-20.75191 16.73687,-40.33869 15.76843,-65.65829 -0.58129,-15.19772 -1.14385,-18.56098 -5.02189,-30.02355 -10.41345,-30.77961 -33.28075,-56.33739 -61.59725,-68.84451 -8.62755,-3.81071 -9.01778,-3.86448 -16.5083,-2.27488 -7.11834,1.51061 -7.64433,1.85905 -7.29004,4.82915 0.31488,2.63959 2.97603,4.65717 15.17178,11.50268 l 14.78993,8.30162 0.0586,20.53534 c 0.0324,11.29444 -0.17523,20.53535 -0.46117,20.53535 -0.28592,0 -5.17001,-1.99035 -10.85354,-4.423 -5.68353,-2.43265 -11.07701,-4.423 -11.98553,-4.423 -1.60132,0 -10.30674,12.28008 -9.34424,13.18125 0.54664,0.5118 4.74091,2.84635 20.38199,11.34466 l 11.05749,6.00791 0,20.67726 0,20.67726 -9.16192,-3.82499 c -5.03906,-2.10374 -10.38179,-4.30941 -11.87275,-4.90151 -2.40186,-0.95384 -3.18147,-0.1935 -6.8404,6.67137 -2.27127,4.26136 -3.61043,7.92429 -2.9759,8.13988 0.63454,0.21558 7.69342,4.23923 15.68641,8.94143 l 14.5327,8.54947 0.34723,20.50854 c 0.19099,11.2797 -0.0934,20.51258 -0.63185,20.51752 -0.5385,0.005 -12.72611,-4.9018 -27.08356,-10.90383 l -26.10448,-10.91277 -26.1525,10.90381 c -14.38381,5.99709 -26.66316,10.90382 -27.28736,10.90382 -0.62421,0 -1.13493,-9.0915 -1.13493,-20.20334 l 0,-20.20331 15.76119,-9.17803 c 8.66864,-5.0479 15.77703,-9.67745 15.79642,-10.28789 0.0193,-0.61044 -1.68962,-4.12461 -3.79778,-7.80928 l -3.83299,-6.69939 -9.12007,3.80772 c -5.01603,2.09424 -10.39957,4.31484 -11.96341,4.93464 l -2.84336,1.12693 0,-20.7495 0,-20.74948 15.79642,-8.37995 c 8.68803,-4.60898 15.79642,-8.94545 15.79642,-9.6366 0,-2.18668 -7.63489,-12.4536 -9.261,-12.4536 -0.8565,0 -6.2766,1.99035 -12.04463,4.423 -5.76803,2.43265 -10.74073,4.423 -11.05043,4.423 -0.30971,0 -0.40685,-9.19809 -0.21587,-20.4402 l 0.34723,-20.4402 14.78993,-8.30929 c 12.91128,-7.25381 14.79739,-8.72944 14.84863,-11.61704 0.0531,-2.98644 -0.58575,-3.44091 -6.57578,-4.67852 -6.54423,-1.35211 -6.80681,-1.28609 -19.29917,4.85232 -10.04588,4.93627 -15.02655,8.427 -24.08684,16.88137 -16.63322,15.52087 -26.35972,30.23108 -32.57835,49.27098 -19.84904,60.77291 13.39672,125.62288 74.55024,145.41943 5.54414,1.79474 13.46167,3.79334 17.5945,4.44132 10.12332,1.58722 30.66102,0.71939 42.26433,-1.7859 z M 365.97642,529.98176 c 16.81664,-8.59308 35.74664,-26.62885 45.09135,-42.9613 12.70632,-22.20778 17.15255,-40.40721 16.01048,-65.53455 -2.0375,-44.82814 -29.17688,-82.97859 -71.38961,-100.35404 -5.07433,-2.08866 -11.18755,-4.16556 -13.58492,-4.61532 l -4.35889,-0.81772 0.0607,105.97665 0.0607,105.97666 5.82071,4.64378 5.8207,4.64379 6.23793,-2.45877 c 3.43087,-1.35232 8.03484,-3.37696 10.23105,-4.49918 z m 318.76202,2.8423 5.6393,-4.30594 -0.0425,-105.86184 c -0.0234,-58.22403 -0.33346,-106.15283 -0.6891,-106.50847 -1.17495,-1.17495 -18.52019,5.07639 -28.1344,10.13983 -28.4631,14.99041 -47.8286,39.06141 -57.28314,71.20199 -2.6094,8.87064 -2.9667,12.66528 -2.91527,30.96099 0.0565,20.08128 0.21182,21.31794 4.20763,33.48841 8.71282,26.53753 23.27479,46.16919 45.32023,61.09823 7.47743,5.06367 24.90332,14.09273 27.19868,14.09273 0.58258,0 3.59693,-1.93767 6.69855,-4.30593 z m -403.72665,-0.85511 4.92078,-3.89734 0,-106.04575 c 0,-67.75883 -0.44312,-106.04575 -1.22733,-106.04575 -3.29059,0 -22.987,8.16605 -30.58767,12.68153 -59.37354,35.27317 -74.43988,113.74036 -32.55595,169.55514 10.3007,13.72676 27.24194,27.22775 43.36855,34.56167 8.54453,3.88581 10.26249,3.79933 16.08162,-0.8095 z m 483.12159,0.25007 c 37.3211,-16.9222 63.85641,-55.94911 66.11841,-97.24396 1.59498,-29.11773 -5.83041,-53.13044 -24.05307,-77.78444 -13.27957,-17.96634 -38.80383,-35.34898 -59.32661,-40.40288 l -3.47521,-0.85578 0,106.04511 0,106.04511 4.46698,3.92205 c 2.45682,2.15712 5.31266,3.92205 6.3463,3.92205 1.03364,0 5.49909,-1.64126 9.9232,-3.64726 z m 101.8304,188.46537 c -18.4163,-18.59238 -41.12454,-41.59675 -50.46275,-51.12081 l -16.97855,-17.3165 7.42037,-16.17192 c 4.08122,-8.89456 7.79101,-16.61809 8.244,-17.1634 0.69202,-0.83307 31.84145,0.64332 75.16897,3.56276 5.56034,0.37467 23.08393,1.45542 38.94131,2.40168 15.85739,0.94625 29.0429,1.93175 29.30114,2.18999 0.25824,0.25824 -2.90273,7.85096 -7.02437,16.8727 l -7.49389,16.40318 -12.75302,0 -12.75303,0 -9.82101,21.67502 -9.821,21.67502 8.89958,8.89958 8.89958,8.89957 -7.34018,16.49874 c -4.03711,9.0743 -7.70081,16.49873 -8.14157,16.49873 -0.44075,0 -15.86927,-15.21195 -34.28558,-33.80434 z m 17.55965,-50.34493 c 2.96843,-6.66469 5.05455,-12.46018 4.63585,-12.87889 -0.79544,-0.79544 -42.67664,-5.47881 -43.31207,-4.84338 -0.49895,0.49894 31.40393,29.83987 32.44538,29.83987 0.45854,0 3.26243,-5.45293 6.23084,-12.1176 z m -765.15792,69.10422 c -10.209,-4.63635 -13.9598,-14.58685 -9.0921,-24.11987 3.6756,-7.19829 9.8094,-11.38515 16.6703,-11.3789 19.51,0.0178 25.6932,27.39373 8.0012,35.42498 -6.6581,3.02241 -9.0617,3.03379 -15.5794,0.0738 z m 56.99212,-10.51641 c -11.27722,-4.01979 -20.60762,-14.24838 -29.70952,-32.56936 -2.935,-5.90787 -5.5082,-10.9321 -5.7182,-11.16496 -0.21,-0.23287 -8.8809,4.17433 -19.2686,9.79378 -10.3877,5.61944 -19.3965,10.21717 -20.0195,10.21717 -1.033602,0 -16.903402,-28.89892 -16.903402,-30.78126 0,-0.44637 0.4627,-0.81158 1.0282,-0.81158 0.886,0 26.442502,-13.29918 67.844202,-35.30492 30.69613,-16.31559 48.3756,-25.35333 49.59568,-25.35333 1.7637,0 28.3598,50.40032 31.34232,59.39454 5.38232,16.23115 1.38792,32.5202 -10.55695,43.05099 -13.78492,12.15302 -34.77203,18.11371 -47.63423,13.52893 z m 21.50834,-39.45334 c 8.18167,-6.24046 8.60624,-12.5356 1.72743,-25.61242 -2.10698,-4.00544 -4.00529,-7.45705 -4.21846,-7.67022 -0.31639,-0.31639 -28.11363,14.34663 -29.55583,15.59065 -0.9296,0.80189 10.12489,18.27078 12.77352,20.18537 4.22034,3.05072 13.59465,1.83796 19.27334,-2.49338 z M 903.79925,573.39469 c -21.36551,-6.06131 -35.46924,-26.0091 -33.65867,-47.60556 1.38005,-16.46128 11.27469,-30.86529 25.91735,-37.72891 6.29725,-2.95179 8.78128,-3.37435 19.83588,-3.37435 11.46196,0 13.31503,0.34349 19.92673,3.69362 16.13391,8.17499 24.9351,22.68294 24.9351,41.10317 0,18.28018 -8.77083,32.78462 -24.5104,40.53319 -9.43459,4.64463 -23.00345,6.05766 -32.44599,3.37884 z m 25.98349,-11.53586 c 6.19171,-2.58706 13.11358,-9.33936 16.81285,-16.40094 4.55316,-8.6916 4.84215,-23.88677 0.60609,-31.86862 -4.0826,-7.69272 -13.39177,-15.31496 -21.62902,-17.7096 -23.35755,-6.79022 -44.65236,9.21125 -44.8768,33.72158 -0.16193,17.68419 10.47269,29.87548 30.1431,34.55538 3.75549,0.89349 14.39445,-0.39697 18.94378,-2.2978 z M 910.2071,546.87891 c -12.16324,-3.51435 -22.30464,-6.52957 -22.53641,-6.70049 -0.62873,-0.46362 4.3243,-17.99177 7.42841,-26.28824 3.47712,-9.29344 8.32409,-12.17718 16.40032,-9.75747 6.97344,2.08928 10.0811,5.44392 10.0811,10.88229 0,5.05716 0.18618,5.1014 10.74157,2.5527 10.97396,-2.64976 11.19157,-2.60335 10.25065,2.18623 -1.07011,5.44715 -3.15442,6.78493 -13.43319,8.62183 -10.36008,1.85146 -10.96399,2.17745 -11.53586,6.2268 -0.41504,2.93884 0.1949,3.33564 8.74165,5.68671 9.16282,2.52056 9.18564,2.53774 8.38504,6.31857 -1.49108,7.04153 -1.10528,7.03727 -24.52328,0.27107 z m 1.8059,-19.10534 c 1.09188,-3.75595 1.98524,-7.6485 1.98524,-8.65013 0,-2.65887 -4.49627,-6.29412 -7.17233,-5.79885 -2.79821,0.51789 -6.31534,7.38263 -7.44781,14.53665 -0.76502,4.83267 -0.58849,5.31039 2.1545,5.83055 7.96822,1.51104 8.38987,1.27293 10.4804,-5.91822 z"
     id="path3773"
     inkscape:connector-curvature="0" />
</svg>
