<?xml version="1.0" encoding="UTF-8" standalone="no"?>
<!-- Generated by IcoMoon.io -->

<svg
   xmlns:dc="http://purl.org/dc/elements/1.1/"
   xmlns:cc="http://creativecommons.org/ns#"
   xmlns:rdf="http://www.w3.org/1999/02/22-rdf-syntax-ns#"
   xmlns:svg="http://www.w3.org/2000/svg"
   xmlns="http://www.w3.org/2000/svg"
   xmlns:sodipodi="http://sodipodi.sourceforge.net/DTD/sodipodi-0.dtd"
   xmlns:inkscape="http://www.inkscape.org/namespaces/inkscape"
   version="1.1"
   width="1024"
   height="1024"
   viewBox="0 0 1024 1024"
   id="svg3401"
   inkscape:version="0.91 r13725"
   sodipodi:docname="cbc-logo.svg">
  <metadata
     id="metadata3410">
    <rdf:RDF>
      <cc:Work
         rdf:about="">
        <dc:format>image/svg+xml</dc:format>
        <dc:type
           rdf:resource="http://purl.org/dc/dcmitype/StillImage" />
        <dc:title></dc:title>
      </cc:Work>
    </rdf:RDF>
  </metadata>
  <defs
     id="defs3408" />
  <sodipodi:namedview
     pagecolor="#ffffff"
     bordercolor="#666666"
     borderopacity="1"
     objecttolerance="10"
     gridtolerance="10"
     guidetolerance="10"
     inkscape:pageopacity="0"
     inkscape:pageshadow="2"
     inkscape:window-width="1920"
     inkscape:window-height="1016"
     id="namedview3406"
     showgrid="false"
     inkscape:zoom="0.40234375"
     inkscape:cx="-97.26756"
     inkscape:cy="384.21626"
     inkscape:window-x="0"
     inkscape:window-y="27"
     inkscape:window-maximized="1"
     inkscape:current-layer="svg3401" />
  <g
     id="icomoon-ignore" />
  <path
     style="fill:#000000"
     d="m 176.75051,850.98915 c -17.14794,-2.30285 -38.56235,-6.02371 -47.58759,-8.26853 -44.153971,-10.98236 -87.893781,-42.53696 -99.053771,-71.45892 -7.77605,-20.1523 -7.65364,-61.02764 0.26254,-87.66611 13.98126,-47.04785 56.74645,-115.46153 107.083511,-171.30704 l 14.85609,-16.48181 -7.81026,23.2872 c -13.70263,40.85601 -5.93335,75.35435 21.66618,96.20539 19.6774,14.866 31.99138,17.38762 85.01216,17.40846 39.95509,0.0164 47.34512,-0.79353 52.28012,-5.72502 6.04146,-6.03716 28.89868,-53.06665 26.80766,-55.15765 -0.66794,-0.66797 -8.52981,1.04752 -17.47082,3.81219 -23.37412,7.2275 -65.90048,7.23607 -79.69154,0.0164 -15.23396,-7.97538 -21.33201,-23.56764 -16.91883,-43.26013 13.45792,-60.0519 74.57524,-96.91712 138.62936,-83.61954 10.3162,2.14163 19.81311,3.87459 21.10424,3.85101 1.29114,-0.0236 5.6197,-12.03229 9.61906,-26.68602 6.68314,-24.48721 6.82889,-26.82553 1.80118,-28.89685 -3.00872,-1.23985 -27.62322,-2.23664 -54.69892,-2.21542 -41.75725,0.0328 -52.12621,1.0875 -68.32141,6.94984 -10.50108,3.80118 -17.88536,5.89481 -16.40951,4.6525 36.68511,-30.88 105.36178,-76.42353 161.18491,-106.89118 161.73562,-88.27351 346.83961,-140.80571 449.47753,-127.56095 87.08719,11.23803 134.56953,51.14327 140.53134,118.10569 5.93956,66.71222 -37.04707,147.47433 -126.58988,237.83394 -41.64524,42.02512 -45.35533,44.93771 -61.78605,48.50445 -21.08356,4.57678 -59.42226,4.96437 -70.60219,0.71375 -21.64714,-8.23022 -27.24048,-29.11733 -16.37584,-61.15208 7.91746,-23.34493 39.02143,-53.72803 65.07557,-63.56737 16.90235,-6.38318 23.64256,-7.16821 47.58758,-5.54258 15.3429,1.04163 31.6873,2.79172 36.32088,3.88908 8.13492,1.92658 8.67338,1.0662 15.65287,-25.01097 3.97547,-14.8534 6.36634,-27.86799 5.31301,-28.92132 -1.05333,-1.05333 -22.23797,-2.47326 -47.07699,-3.1554 -38.41719,-1.05504 -48.9477,-0.20161 -70.51194,5.71444 -36.75383,10.08326 -60.16177,23.11573 -80.99281,45.09306 -43.20963,45.58732 -60.93601,88.91683 -52.30392,127.84929 8.33243,37.58086 34.35654,56.7091 81.12278,59.62675 l 27.98846,1.74613 -7.80518,6.13778 c -17.10098,13.44776 -94.82768,65.04688 -122.23367,81.14527 -119.44003,70.15942 -251.97917,117.57307 -358.60939,128.28648 -17.80632,1.78903 -37.54412,3.84904 -43.86179,4.57779 -6.31766,0.72875 -25.51679,-0.55917 -42.66473,-2.86201 z M 529.55055,622.44337 c 35.57205,-11.74852 59.38147,-39.61111 63.26097,-74.03013 1.7973,-15.94552 -4.56545,-28.62603 -17.26779,-34.41363 -7.57152,-3.44981 -7.29666,-3.81958 8.80154,-11.84167 33.47202,-16.6798 55.78276,-66.33992 39.95604,-88.93573 -10.50832,-15.0027 -21.60722,-16.79308 -104.10378,-16.79308 -70.34901,0 -76.99187,0.48567 -78.55632,5.74333 -0.93994,3.15883 -20.9029,55.21801 -44.36211,115.68706 l -42.65314,109.94373 18.54458,2.14331 c 10.19953,1.17882 44.38957,1.67971 75.97789,1.11305 49.4288,-0.88663 60.63447,-2.08748 80.40212,-8.61624 z M 442.58462,580.5216 c 0,-1.63678 4.3688,-12.7132 9.70846,-24.61427 l 9.70843,-21.6383 24.9673,0 c 13.732,0 27.82391,1.52881 31.31533,3.39736 13.82968,7.40141 2.48227,32.45056 -18.71184,41.30602 -12.00835,5.01741 -56.98768,6.24015 -56.98768,1.54919 z m 45.57519,-114.35204 9.0654,-22.15285 20.19399,-0.97517 c 23.98995,-1.15849 33.46822,2.92926 33.46822,14.43401 0,20.75668 -16.53833,30.84685 -50.55966,30.84685 l -21.23335,0 9.0654,-22.15284 z"
     id="path3856"
     inkscape:connector-curvature="0" />
</svg>
