<?xml version="1.0" encoding="UTF-8" standalone="no"?>
<!-- Generated by IcoMoon.io -->

<svg
   xmlns:dc="http://purl.org/dc/elements/1.1/"
   xmlns:cc="http://creativecommons.org/ns#"
   xmlns:rdf="http://www.w3.org/1999/02/22-rdf-syntax-ns#"
   xmlns:svg="http://www.w3.org/2000/svg"
   xmlns="http://www.w3.org/2000/svg"
   xmlns:sodipodi="http://sodipodi.sourceforge.net/DTD/sodipodi-0.dtd"
   xmlns:inkscape="http://www.inkscape.org/namespaces/inkscape"
   version="1.1"
   width="1024"
   height="1024"
   viewBox="0 0 1024 1024"
   id="svg3401"
   inkscape:version="0.91 r13725"
   sodipodi:docname="colt-logo.svg">
  <metadata
     id="metadata3410">
    <rdf:RDF>
      <cc:Work
         rdf:about="">
        <dc:format>image/svg+xml</dc:format>
        <dc:type
           rdf:resource="http://purl.org/dc/dcmitype/StillImage" />
        <dc:title></dc:title>
      </cc:Work>
    </rdf:RDF>
  </metadata>
  <defs
     id="defs3408" />
  <sodipodi:namedview
     pagecolor="#ffffff"
     bordercolor="#666666"
     borderopacity="1"
     objecttolerance="10"
     gridtolerance="10"
     guidetolerance="10"
     inkscape:pageopacity="0"
     inkscape:pageshadow="2"
     inkscape:window-width="1920"
     inkscape:window-height="1016"
     id="namedview3406"
     showgrid="false"
     inkscape:zoom="0.40234375"
     inkscape:cx="-97.26756"
     inkscape:cy="384.21626"
     inkscape:window-x="0"
     inkscape:window-y="27"
     inkscape:window-maximized="1"
     inkscape:current-layer="svg3401" />
  <g
     id="icomoon-ignore" />
  <path
     style="fill:#000000"
     d="m 455.13527,837.13616 c -2.16262,-0.1577 -10.125,-0.66859 -17.69417,-1.13531 -32.51662,-2.00498 -66.26416,-6.78071 -97.90776,-13.85527 C 174.14658,785.17008 58.129286,685.60428 25.365006,552.52695 c -6.44141,-26.16282 -8.58999,-43.07893 -9.18938,-72.34951 -0.48608,-23.73731 0.29376,-38.83134 2.966,-57.40777 4.77319,-33.18144 12.4501,-58.46568 26.26496,-86.50485 13.87559,-28.16244 31.6065,-51.89473 54.53353,-72.99146 52.293724,-48.11906 127.998514,-75.82275 200.272834,-73.28857 38.24589,1.34103 55.73566,3.8885 96.98752,14.1267 41.20852,10.22745 50.67763,11.69268 76.02218,11.76353 13.62918,0.0381 18.96997,-0.26019 25.16505,-1.40549 19.34564,-3.5765 42.79928,-11.78051 62.91262,-22.00663 6.05534,-3.07868 11.22683,-5.70351 11.49221,-5.83295 0.26537,-0.12943 1.92538,2.1934 3.68892,5.16187 11.72386,19.7342 37.05578,44.63939 65.91768,64.8073 19.94653,13.93809 51.68719,31.24392 76.83484,41.89238 l 10.87541,4.60506 -5.37056,3.51094 c -12.41214,8.11434 -32.54188,16.47199 -50.58899,21.00402 -23.88179,5.99725 -33.95738,7.07213 -66.05825,7.04726 -24.11584,-0.0187 -28.36807,-0.21541 -38.26159,-1.77007 -29.45445,-4.62844 -46.14683,-9.81849 -95.42773,-29.67071 -47.97111,-19.32459 -76.08292,-27.22302 -113.12111,-31.78305 -30.76947,-3.78825 -65.2564,-4.16138 -81.49086,-0.88169 -57.93239,11.70349 -105.16817,59.07664 -122.6526,123.00927 -12.3807,45.27064 -9.54058,93.47445 8.31729,141.16483 21.36851,57.06574 60.17246,105.40223 112.66192,140.33838 53.66144,35.71618 120.55037,58.47844 200.2174,68.13385 42.66286,5.17063 96.71596,6.81156 130.15048,3.9511 74.86912,-6.40535 162.46298,-30.62665 242.9425,-67.17805 5.25108,-2.38489 5.32509,-2.61492 -1.88211,5.84955 -29.59087,34.75269 -78.80657,72.01747 -128.21088,97.07773 -58.57605,29.71261 -116.89553,46.13895 -187.45003,52.79745 -11.86892,1.12011 -68.84401,2.16109 -78.74899,1.43879 z M 369.02363,645.63551 c -35.65403,-4.00858 -68.68487,-20.25403 -93.60341,-46.03663 -12.19075,-12.61348 -19.90883,-23.59301 -27.56121,-39.20785 -22.22658,-45.3538 -20.56192,-98.74451 4.4564,-142.9305 36.02589,-63.62695 113.71313,-92.91952 183.03719,-69.01557 73.16044,25.22678 115.7627,100.44756 99.98414,176.53723 -11.88478,57.31252 -56.0668,102.84125 -113.62996,117.09348 -15.90034,3.93681 -36.78093,5.34773 -52.68315,3.55984 z m 34.20873,-91.91285 c 12.17363,-3.86097 24.26012,-11.94794 31.49741,-21.07465 4.30975,-5.43488 10.107,-16.91039 11.80793,-23.37348 1.99404,-7.57687 2.34926,-20.16369 0.78887,-27.95353 -6.91813,-34.53711 -40.29872,-56.75704 -74.58393,-49.64711 -22.67598,4.70246 -40.65118,21.18195 -47.75912,43.7851 -2.42173,7.70107 -3.00744,21.48311 -1.27611,30.02755 4.8924,24.14502 22.80873,42.888 46.88903,49.05247 8.2681,2.11661 24.68291,1.706 32.63592,-0.81635 z m 556.98122,88.40929 c -12.62499,-3.05998 -22.68904,-11.94701 -26.50084,-23.40145 -6.35213,-19.0882 1.22397,-39.23983 17.8664,-47.52254 13.01639,-6.47807 29.45191,-5.3159 41.437,2.93007 17.86136,12.28895 20.16576,42.3159 4.45335,58.02833 -9.15182,9.15178 -24.1078,13.15238 -37.25591,9.96559 z m 17.9511,-9.07646 c 4.51453,-1.39441 6.09686,-2.40299 10.17831,-6.48787 7.20775,-7.21367 10.167,-16.75964 8.3099,-26.80575 -2.52044,-13.63446 -11.77237,-22.565 -24.61991,-23.76472 -17.34187,-1.6194 -30.99878,13.18919 -29.42148,31.90252 1.08925,12.92376 8.60267,22.43773 20.17584,25.54796 5.96427,1.60286 9.18414,1.52075 15.37734,-0.39214 z m -23.26729,-28.23242 0,-20.4466 9.005,0 c 4.95271,0 10.87421,0.40087 13.1588,0.89083 7.49446,1.60729 11.23997,7.60491 9.28449,14.86715 -1.03987,3.86161 -3.16946,6.14985 -6.30778,6.77752 -1.28413,0.25681 -2.33469,0.81165 -2.33469,1.23298 0,0.42133 1.99528,4.18134 4.43393,8.35558 2.43865,4.17424 4.59333,7.87183 4.78804,8.21686 0.19479,0.34502 -2.01155,0.52197 -4.90286,0.3932 l -5.25706,-0.23412 -4.56384,-8.25728 c -3.78883,-6.85494 -4.91119,-8.29955 -6.60873,-8.50612 l -2.04482,-0.24883 0,8.70271 0,8.70272 -4.32524,0 -4.32524,0 0,-20.4466 z m 19.47059,-3.98378 c 4.04512,-1.41015 4.35426,-7.16483 0.46429,-8.64379 -1.07242,-0.40775 -4.05015,-0.74136 -6.61715,-0.74136 l -4.66725,0 0,5.11165 0,5.11165 4.20791,0 c 2.31432,0 5.28985,-0.37717 6.6122,-0.83815 z M 553.82944,495.9056 l 0,-144.30583 47.18447,0 47.18446,0 0,101.0534 0,101.0534 55.44175,0 55.44174,0 0,43.25242 0,43.25243 -102.62621,0 -102.62621,0 0,-144.30582 z m 253.22329,43.25908 0,-101.04674 -43.44902,-0.20326 -43.44903,-0.20326 -0.20332,-43.05582 -0.20332,-43.05583 134.08927,0 134.0892,0 0,43.25243 0,43.25243 -43.25242,0 -43.25243,0 0,101.05339 0,101.0534 -47.18446,0 -47.18447,0 0,-101.04674 z"
     id="path3939"
     inkscape:connector-curvature="0" />
</svg>
