<?xml version="1.0" encoding="UTF-8" standalone="no"?>
<!-- Generated by IcoMoon.io -->

<svg
   xmlns:dc="http://purl.org/dc/elements/1.1/"
   xmlns:cc="http://creativecommons.org/ns#"
   xmlns:rdf="http://www.w3.org/1999/02/22-rdf-syntax-ns#"
   xmlns:svg="http://www.w3.org/2000/svg"
   xmlns="http://www.w3.org/2000/svg"
   xmlns:sodipodi="http://sodipodi.sourceforge.net/DTD/sodipodi-0.dtd"
   xmlns:inkscape="http://www.inkscape.org/namespaces/inkscape"
   version="1.1"
   width="1024"
   height="1024"
   viewBox="0 0 1024 1024"
   id="svg3401"
   inkscape:version="0.91 r13725"
   sodipodi:docname="glock-logo.svg">
  <metadata
     id="metadata3410">
    <rdf:RDF>
      <cc:Work
         rdf:about="">
        <dc:format>image/svg+xml</dc:format>
        <dc:type
           rdf:resource="http://purl.org/dc/dcmitype/StillImage" />
        <dc:title></dc:title>
      </cc:Work>
    </rdf:RDF>
  </metadata>
  <defs
     id="defs3408" />
  <sodipodi:namedview
     pagecolor="#ffffff"
     bordercolor="#666666"
     borderopacity="1"
     objecttolerance="10"
     gridtolerance="10"
     guidetolerance="10"
     inkscape:pageopacity="0"
     inkscape:pageshadow="2"
     inkscape:window-width="1920"
     inkscape:window-height="1016"
     id="namedview3406"
     showgrid="false"
     inkscape:zoom="0.40234375"
     inkscape:cx="-99.752997"
     inkscape:cy="384.21626"
     inkscape:window-x="0"
     inkscape:window-y="27"
     inkscape:window-maximized="1"
     inkscape:current-layer="svg3401" />
  <g
     id="icomoon-ignore" />
  <path
     style="fill:#000000"
     d="M 125.31354,873.70047 C 89.359624,864.99583 53.972098,832.7201 31.437528,788.07934 24.570705,774.47617 20.833171,760.36864 18.176745,738.02533 15.642308,716.70843 15.396887,289.57287 17.911451,276.31365 c 4.496795,-23.7115 18.580102,-48.3725 41.258557,-72.24701 23.801403,-25.05671 50.297302,-42.02201 80.737632,-51.69625 l 13.02447,-4.13932 318.10348,-0.51028 c 310.74684,-0.49846 318.43718,-0.42588 332.53285,3.13861 64.52379,16.31671 111.39011,73.52368 116.26636,141.91961 0.96386,13.51891 0.62488,16.99973 -2.05355,21.08759 -4.71475,7.19575 -14.67107,10.87539 -22.46596,8.30289 -8.8185,-2.91037 -10.03365,-5.05978 -14.09154,-24.92301 -6.58483,-32.23339 -19.45804,-56.51317 -41.53958,-78.34684 -15.54266,-15.36812 -29.14317,-23.92355 -47.62343,-29.95762 -9.21989,-3.01044 -20.00113,-3.3993 -108.84724,-3.92594 -54.23755,-0.3215 -196.15761,0.077 -315.37789,0.88547 l -216.76416,1.47001 -12.3494,5.78788 c -35.59559,16.68278 -66.147726,47.78408 -79.213188,80.63704 -3.125107,7.85804 -3.361109,22.30356 -3.838014,234.93602 -0.564205,251.55847 -1.222847,236.97947 11.831017,261.88171 13.316453,25.40306 37.560825,48.93781 63.639445,61.77658 l 12.40869,6.10897 315.93738,0.48113 315.93741,0.48097 16.55331,-6.21757 c 21.17027,-7.95199 34.90916,-16.29497 48.30566,-29.33372 26.74462,-26.03075 37.36625,-58.31529 37.36625,-113.5753 l 0,-27.66571 -342.29166,0 c -324.08836,0 -342.38422,-0.17398 -344.03266,-3.25622 -1.06336,-1.98871 -1.33996,-58.49084 -0.71062,-145.16101 l 1.03041,-141.90499 4.65783,-4.65783 c 2.56183,-2.56181 6.6362,-5.15438 9.05414,-5.76125 6.35072,-1.59396 15.38269,2.77892 19.42226,9.40337 3.32628,5.4547 3.49459,11.70117 3.50121,129.92767 l 0.007,124.19747 342.47943,0 c 232.52155,0 343.63489,0.61838 346.07837,1.92614 3.42913,1.8353 3.59889,4.43218 3.59889,55.04396 0,46.69596 -0.44143,54.84249 -3.65178,67.38269 -11.35881,44.36891 -35.81751,80.3929 -69.45523,102.29707 -16.23309,10.5705 -37.64934,19.45998 -54.22308,22.50673 -7.72119,1.41936 -108.13059,1.9829 -333.98425,1.87448 -271.66216,-0.13003 -324.67076,-0.57304 -333.81704,-2.78737 z M 673.70215,571.57548 c -2.1612,-0.89524 -5.71967,-3.90362 -7.90772,-6.68526 -3.94454,-5.01471 -3.97825,-5.85309 -3.97825,-98.95485 l 0,-93.89727 6.32617,-6.32617 c 4.01108,-4.01109 8.13033,-6.32616 11.25621,-6.32616 6.35771,0 15.26719,4.62716 17.71456,9.20012 1.1218,2.09611 1.91579,18.28177 1.91579,39.0541 0,19.51093 0.604,35.47442 1.34224,35.47442 0.73823,0 19.82909,-18.42031 42.42413,-40.934 40.13225,-39.9878 41.25807,-40.93401 48.70222,-40.93401 6.39365,0 8.54983,1.05868 13.39495,6.57698 3.17605,3.61732 5.77152,8.01307 5.76769,9.76833 -0.0141,6.5569 -8.87661,17.13596 -44.73616,53.4021 l -36.82169,37.23919 37.70821,38.2611 c 22.65724,22.98947 38.05411,40.07067 38.57483,42.79476 1.53706,8.04067 -1.90447,16.52577 -8.2794,20.41275 -12.61221,7.69005 -13.37702,7.20781 -56.16934,-35.41601 -21.57532,-21.49035 -39.8308,-39.07338 -40.56777,-39.07338 -0.73696,0 -1.33991,14.24618 -1.33991,31.65817 l 0,31.65813 -6.04708,6.41955 c -6.54707,6.95035 -13.07939,9.19585 -19.27968,6.62741 z m -154.97693,-2.79791 c -10.80551,-3.47854 -26.04595,-14.12005 -33.49171,-23.38529 -3.29083,-4.095 -8.50427,-12.83261 -11.58545,-19.41693 l -5.60212,-11.97147 0.59717,-51.77194 0.59719,-51.77194 6.11545,-12.41471 c 7.32897,-14.87829 18.81958,-25.6647 33.61455,-31.55444 14.02662,-5.58391 42.60906,-5.9919 58.32555,-0.83259 26.75969,8.78453 50.54616,41.05602 45.39345,61.58608 -1.48153,5.90281 -11.19248,12.13244 -18.92719,12.14183 -6.84136,0.007 -11.51815,-4.59719 -18.16881,-17.89188 -8.94843,-17.88795 -23.18796,-25.37496 -40.77503,-21.43915 -11.19791,2.50598 -19.89738,9.60397 -25.69203,20.96244 -3.54738,6.9534 -3.76226,10.20871 -3.23644,49.02623 l 0.56324,41.57829 5.68976,7.14533 c 11.34333,14.24513 30.65936,19.37677 45.0867,11.97798 8.43494,-4.32571 12.69593,-9.03596 20.98093,-23.19315 7.25098,-12.39024 11.65194,-15.19831 21.05509,-13.43426 14.5802,2.73524 18.24058,18.99403 8.47692,37.65286 -7.69549,14.70647 -18.85004,25.70175 -33.32567,32.84993 -10.67614,5.27195 -14.05636,5.99534 -29.77017,6.37106 -11.32083,0.27068 -20.68788,-0.52948 -25.92138,-2.21428 z m -193.85368,-2.56316 c -14.05677,-4.63955 -26.28829,-13.40265 -36.02752,-25.8114 -13.40117,-17.07451 -14.36098,-22.54512 -13.69078,-78.03439 l 0.58088,-48.09409 5.92343,-11.33101 c 8.1764,-15.64075 20.49136,-27.71882 35.52265,-34.83947 11.47363,-5.43526 14.05938,-5.92733 31.14736,-5.92733 17.19405,0 19.56791,0.45922 30.70049,5.93898 17.08094,8.40772 32.07541,23.92401 38.19657,39.52585 4.79317,12.21697 4.80343,12.36416 4.22201,60.60737 l -0.58287,48.36064 -5.50997,11.16381 c -6.76723,13.71127 -22.08561,28.90771 -36.00381,35.71725 -13.72991,6.71742 -38.60981,7.96135 -54.47844,2.72379 z m 41.54302,-39.92703 c 3.8235,-2.10215 9.26587,-7.15841 12.09416,-11.23617 l 5.14231,-7.41405 0.59591,-39.23877 c 0.64305,-42.34366 -0.33867,-49.28541 -8.30967,-58.75841 -6.9396,-8.24728 -14.58736,-11.56168 -26.94638,-11.6781 -14.36641,-0.13532 -26.70145,7.04472 -32.85643,19.12525 -4.10816,8.06314 -4.23651,9.76816 -3.72127,49.42734 l 0.53365,41.07612 5.1088,7.71371 c 10.58485,15.98188 30.88224,20.59171 48.35892,10.98308 z M 948.81671,233.67479 c -13.97783,-6.96544 -20.92958,-18.1161 -20.92958,-33.57133 0,-14.12777 2.10573,-20.17984 9.88252,-28.40404 25.66859,-27.14532 69.92955,-9.9165 70.08405,27.28057 0.1247,30.00995 -31.33612,48.49874 -59.03699,34.6948 z m 36.19129,-6.71443 c 16.727,-10.0831 19.9815,-35.86253 6.38154,-50.54824 -6.98551,-7.54322 -13.68088,-10.53256 -23.5903,-10.53256 -11.54401,0 -20.6029,4.59962 -26.44477,13.42725 -12.75003,19.26687 -3.0058,46.65079 18.39211,51.68632 8.26354,1.94467 17.89636,0.40685 25.26142,-4.03277 z m -32.9326,-28.51967 0,-23.25794 11.62907,0.0274 c 15.80644,0.0372 20.77143,2.76583 21.52055,11.82685 0.61399,7.42815 -3.37905,14.19463 -8.37654,14.19463 -1.68926,0 -0.33371,3.47969 3.98653,10.2335 6.34708,9.92202 6.4186,10.2335 2.35263,10.2335 -3.10104,0 -5.78879,-2.66651 -10.31481,-10.2335 -4.06456,-6.79555 -7.33606,-10.2335 -9.7379,-10.2335 -3.14375,0 -3.61699,1.3388 -3.61699,10.2335 0,8.99308 -0.4509,10.2335 -3.72118,10.2335 -3.5228,0 -3.72136,-1.24042 -3.72136,-23.25795 z m 23.10578,-3.92033 c 4.12255,-1.58195 3.68323,-9.50749 -0.65581,-11.82962 -1.97938,-1.05934 -6.16572,-1.92609 -9.30315,-1.92609 -5.41449,0 -5.70428,0.37801 -5.70428,7.44255 0,7.23142 0.18049,7.44253 6.36009,7.44253 3.49802,0 7.68453,-0.50821 9.30315,-1.12937 z"
     id="path4105"
     inkscape:connector-curvature="0" />
</svg>
