<?xml version="1.0" encoding="UTF-8" standalone="no"?>
<!-- Generated by IcoMoon.io -->

<svg
   xmlns:dc="http://purl.org/dc/elements/1.1/"
   xmlns:cc="http://creativecommons.org/ns#"
   xmlns:rdf="http://www.w3.org/1999/02/22-rdf-syntax-ns#"
   xmlns:svg="http://www.w3.org/2000/svg"
   xmlns="http://www.w3.org/2000/svg"
   xmlns:sodipodi="http://sodipodi.sourceforge.net/DTD/sodipodi-0.dtd"
   xmlns:inkscape="http://www.inkscape.org/namespaces/inkscape"
   version="1.1"
   width="1024"
   height="1024"
   viewBox="0 0 1024 1024"
   id="svg3401"
   inkscape:version="0.91 r13725"
   sodipodi:docname="pistol-icon.svg">
  <metadata
     id="metadata3410">
    <rdf:RDF>
      <cc:Work
         rdf:about="">
        <dc:format>image/svg+xml</dc:format>
        <dc:type
           rdf:resource="http://purl.org/dc/dcmitype/StillImage" />
        <dc:title></dc:title>
      </cc:Work>
    </rdf:RDF>
  </metadata>
  <defs
     id="defs3408" />
  <sodipodi:namedview
     pagecolor="#ffffff"
     bordercolor="#666666"
     borderopacity="1"
     objecttolerance="10"
     gridtolerance="10"
     guidetolerance="10"
     inkscape:pageopacity="0"
     inkscape:pageshadow="2"
     inkscape:window-width="1920"
     inkscape:window-height="1016"
     id="namedview3406"
     showgrid="false"
     inkscape:zoom="0.40234375"
     inkscape:cx="-99.752997"
     inkscape:cy="384.21626"
     inkscape:window-x="0"
     inkscape:window-y="27"
     inkscape:window-maximized="1"
     inkscape:current-layer="svg3401" />
  <g
     id="icomoon-ignore" />
  <path
     style="fill:#000000"
     d="m 752.72637,843.12019 c -5.13369,-2.9901 -8.75527,-11.06411 -8.75527,-19.51924 0,-10.31161 -4.27602,-17.46451 -15.00903,-25.10711 -12.30786,-8.76397 -15.00903,-14.21795 -15.00903,-30.30508 0,-24.43826 -15.89391,-67.2282 -30.9073,-83.20916 -8.06655,-8.58652 -10.90741,-16.90017 -9.87389,-28.89599 1.6568,-19.23022 -9.38694,-43.72921 -24.47687,-54.29862 -7.7246,-5.4105 -9.48001,-10.3976 -7.0574,-20.05001 3.86307,-15.39181 -4.49415,-42.93408 -18.38666,-60.59561 -11.81811,-15.02424 -33.33571,-16.92378 -60.96048,-5.38143 -14.52103,6.0673 -33.48885,6.84646 -102.88314,4.22649 -46.79392,-1.76671 -87.7469,-4.86058 -91.0066,-6.87519 -4.55421,-2.81464 -4.48496,-9.67297 0.29903,-29.61482 9.42789,-39.29988 4.58495,-79.35187 -11.24096,-92.96475 -14.63291,-12.58668 -37.91204,-14.90054 -205.04259,-20.38041 -63.003871,-2.06578 -101.677721,-5.37273 -106.821841,-9.13419 -4.70011,-3.43682 -9.16788,-16.20309 -10.71138,-30.60691 -1.4564,-13.59094 -4.60466,-27.19257 -6.99614,-30.22583 -7.93221,-10.06092 -10.92442,-64.61593 -4.59577,-83.79191 4.61089,-13.97116 8.7278,-18.25778 17.53491,-18.25778 6.33012,0 15.16094,-5.06555 19.62405,-11.25677 l 8.11474,-11.25678 8.11474,11.25678 8.11474,11.25677 392.594441,0 c 388.38691,0 392.62246,-0.10721 395.21107,-10.00602 3.34071,-12.77491 19.52855,-12.96023 26.30352,-0.30113 3.41841,6.38734 11.60223,10.2354 23.9403,11.25677 l 18.74643,1.55188 0.3307,55.03311 c 0.18211,30.26822 2.08276,58.89872 4.22419,63.62334 6.60783,14.57875 0.71518,20.89316 -26.97453,28.90519 -38.06009,11.01271 -47.89566,25.79308 -46.55991,69.96775 0.61517,20.34276 5.42071,46.07278 11.84858,63.44006 5.94758,16.06946 13.34343,36.53408 16.43529,45.47696 3.09186,8.94288 7.45488,16.25978 9.69563,16.25978 2.24075,0 2.68267,2.25135 0.98204,5.00301 -1.70062,2.75166 -0.85951,5.00301 1.86913,5.00301 2.72859,0 6.54193,5.06555 8.47405,11.25677 1.93216,6.19123 5.1616,12.38245 7.17661,13.75828 7.78179,5.3133 55.678,94.76356 65.10913,121.59681 5.45973,15.53394 9.9268,40.56765 9.9268,55.63047 0,25.17729 -1.35,28.41659 -16.73205,40.14905 -10.92877,8.33577 -23.11541,12.76213 -35.13644,12.76213 l -18.40442,0 8.16996,12.4689 c 16.85289,25.72078 10.84398,27.56924 -89.08119,27.40304 -52.7692,-0.0875 -95.16581,-2.30944 -100.21719,-5.25161 z M 574.25359,483.68906 c 12.053,-12.05299 14.6242,-18.79674 14.6242,-38.35642 0,-23.0186 -5.33976,-27.21421 -8.47655,-6.66025 -3.75386,24.59779 -30.72754,58.82721 -41.23831,52.33115 -7.27738,-4.49766 -6.67032,-17.61823 1.94507,-42.03675 8.79974,-24.94109 2.46523,-49.16475 -14.54805,-55.6332 -6.08291,-2.31272 -31.13439,-5.75452 -55.66992,-7.64845 -43.91701,-3.39 -44.80438,-3.23513 -57.11759,9.96828 -10.38197,11.13253 -12.50753,18.37612 -12.50753,42.6237 0,23.88479 2.17243,31.52438 11.91271,41.89242 12.69421,13.51236 22.97849,15.16081 107.29361,17.19773 37.18813,0.89839 39.89395,0.21013 53.78236,-13.67821 z"
     id="path4252"
     inkscape:connector-curvature="0" />
</svg>
