<?xml version="1.0" encoding="UTF-8" standalone="no"?>
<!-- Generated by IcoMoon.io -->

<svg
   xmlns:dc="http://purl.org/dc/elements/1.1/"
   xmlns:cc="http://creativecommons.org/ns#"
   xmlns:rdf="http://www.w3.org/1999/02/22-rdf-syntax-ns#"
   xmlns:svg="http://www.w3.org/2000/svg"
   xmlns="http://www.w3.org/2000/svg"
   xmlns:sodipodi="http://sodipodi.sourceforge.net/DTD/sodipodi-0.dtd"
   xmlns:inkscape="http://www.inkscape.org/namespaces/inkscape"
   version="1.1"
   width="1024"
   height="1024"
   viewBox="0 0 1024 1024"
   id="svg3401"
   inkscape:version="0.91 r13725"
   sodipodi:docname="taurus-logo.svg">
  <metadata
     id="metadata3410">
    <rdf:RDF>
      <cc:Work
         rdf:about="">
        <dc:format>image/svg+xml</dc:format>
        <dc:type
           rdf:resource="http://purl.org/dc/dcmitype/StillImage" />
        <dc:title></dc:title>
      </cc:Work>
    </rdf:RDF>
  </metadata>
  <defs
     id="defs3408" />
  <sodipodi:namedview
     pagecolor="#ffffff"
     bordercolor="#666666"
     borderopacity="1"
     objecttolerance="10"
     gridtolerance="10"
     guidetolerance="10"
     inkscape:pageopacity="0"
     inkscape:pageshadow="2"
     inkscape:window-width="1920"
     inkscape:window-height="1016"
     id="namedview3406"
     showgrid="false"
     inkscape:zoom="0.40234375"
     inkscape:cx="-99.752997"
     inkscape:cy="384.21626"
     inkscape:window-x="0"
     inkscape:window-y="27"
     inkscape:window-maximized="1"
     inkscape:current-layer="svg3401" />
  <g
     id="icomoon-ignore" />
  <path
     style="fill:#000000"
     d="M 364.30536,961.91183 C 138.06966,896.90256 -13.382108,673.61762 20.525485,455.07791 38.342515,340.2444 77.770988,264.45315 163.57616,180.09927 209.68971,134.76567 302.70078,80.875093 363.15741,64.461974 l 35.4867,-9.634148 -6.48848,65.848004 c -6.03771,61.27323 -9.25374,68.80426 -46.29097,108.40006 -40.72915,43.54275 -65.16194,104.14966 -56.04342,139.01889 6.22532,23.80568 -28.33623,56.09428 -132.46955,123.75766 -126.828812,82.41039 -122.986515,76.22461 -44.48168,71.61163 49.64716,-2.91729 94.13526,-13.43145 157.92465,-37.32338 l 88.80663,-33.26197 55.01437,38.79721 c 30.25791,21.33846 54.95127,41.07692 54.87414,43.86324 -0.49686,17.94706 -39.17379,45.15155 -160.041,112.5692 l -64.20613,35.81307 77.84868,-4.14298 c 42.81677,-2.27864 108.11481,-13.17691 145.10673,-24.21838 64.83832,-19.35313 67.91253,-19.48311 85.44926,-3.61257 10.00517,9.05454 31.25655,38.35918 47.2253,65.1214 31.87103,53.41304 49.7334,62.24576 109.63204,54.21167 38.29294,-5.13616 70.52008,-31.49334 70.52008,-57.67531 0,-17.89532 -16.07252,-15.81861 -43.29421,5.59396 -23.52791,18.50706 -52.67519,23.08966 -80.04871,12.58546 -8.21536,-3.15253 -27.4013,-30.42347 -42.63543,-60.60208 l -27.69839,-54.87023 28.75448,-35.78112 c 67.0575,-83.44407 98.55643,-204.79993 69.20963,-266.64375 -24.88705,-52.44554 -104.6665,-73.04355 -144.23067,-37.23848 -16.5598,14.98643 -17.69946,23.69513 -12.02125,91.86125 7.70519,92.49978 0.78544,130.88092 -23.59657,130.88092 -30.47403,0 -148.56641,-110.59201 -163.47434,-153.09163 -18.85788,-53.7603 -1.86004,-105.62801 50.37769,-153.72374 l 39.78963,-36.63468 2.70904,-73.26934 2.70904,-73.269343 64.11069,-2.89302 c 139.07066,-6.275627 270.06364,43.533006 365.04697,138.805093 77.28876,77.52376 117.34419,155.98699 137.50734,269.35898 5.2643,29.59961 5.0779,29.77172 -33.40154,30.84928 -78.56261,2.20002 -89.59912,8.4218 -119.92387,67.60639 -21.14976,41.27782 -27.74355,65.70016 -26.49825,98.14516 0.91183,23.75623 -2.29612,45.6368 -7.12873,48.62352 -13.6674,8.44692 -10.33735,38.42918 4.91841,44.28336 21.19919,8.13489 52.87802,-59.71493 41.65855,-89.22437 -8.94062,-23.5156 -2.29797,-59.2388 18.27148,-98.26138 16.43432,-31.17777 25.75589,-35.32382 79.7727,-35.48137 54.68025,-0.15945 53.32425,-3.47868 34.62637,84.75884 -35.7777,168.83894 -176.94205,312.59156 -352.95933,359.43085 -68.38177,18.19674 -209.95208,16.42661 -279.27013,-3.49197 z m 77.84868,-313.7229 c 97.1635,-65.46144 145.76986,-162.37855 121.34689,-241.95586 -18.16922,-59.20068 30.05284,-100.10618 70.42195,-59.73709 37.1973,37.19732 19.64327,158.72266 -32.8726,227.57453 -29.31541,38.43448 -95.68507,81.59831 -145.01741,94.31278 -20.22654,5.21301 -45.0183,11.82611 -55.09285,14.69577 -10.07452,2.86968 8.47178,-12.83088 41.21402,-34.89013 z M 149.07666,535.34121 c 0,-1.68447 25.75875,-19.22578 57.24167,-38.98067 31.48292,-19.75489 68.28035,-43.16354 81.77207,-52.01922 23.73273,-15.57766 24.85567,-15.49345 34.53354,2.58982 8.95346,16.7297 5.41826,21.0128 -33.68906,40.81616 -40.88023,20.70114 -139.85822,54.38347 -139.85822,47.59391 z"
     id="path4430"
     inkscape:connector-curvature="0" />
</svg>
