<?xml version="1.0" encoding="UTF-8" standalone="no"?>
<!-- Generated by IcoMoon.io -->

<svg
   xmlns:dc="http://purl.org/dc/elements/1.1/"
   xmlns:cc="http://creativecommons.org/ns#"
   xmlns:rdf="http://www.w3.org/1999/02/22-rdf-syntax-ns#"
   xmlns:svg="http://www.w3.org/2000/svg"
   xmlns="http://www.w3.org/2000/svg"
   xmlns:sodipodi="http://sodipodi.sourceforge.net/DTD/sodipodi-0.dtd"
   xmlns:inkscape="http://www.inkscape.org/namespaces/inkscape"
   version="1.1"
   width="1024"
   height="1024"
   viewBox="0 0 1024 1024"
   id="svg3401"
   inkscape:version="0.91 r13725"
   sodipodi:docname="taurus-logo.svg">
  <metadata
     id="metadata3410">
    <rdf:RDF>
      <cc:Work
         rdf:about="">
        <dc:format>image/svg+xml</dc:format>
        <dc:type
           rdf:resource="http://purl.org/dc/dcmitype/StillImage" />
        <dc:title></dc:title>
      </cc:Work>
    </rdf:RDF>
  </metadata>
  <defs
     id="defs3408" />
  <sodipodi:namedview
     pagecolor="#ffffff"
     bordercolor="#666666"
     borderopacity="1"
     objecttolerance="10"
     gridtolerance="10"
     guidetolerance="10"
     inkscape:pageopacity="0"
     inkscape:pageshadow="2"
     inkscape:window-width="1920"
     inkscape:window-height="1016"
     id="namedview3406"
     showgrid="false"
     inkscape:zoom="0.40234375"
     inkscape:cx="-99.752997"
     inkscape:cy="384.21626"
     inkscape:window-x="0"
     inkscape:window-y="27"
     inkscape:window-maximized="1"
     inkscape:current-layer="svg3401" />
  <g
     id="icomoon-ignore" />
  <path
     style="fill:#000000"
     d="m 57.581519,535.99923 0,-44.05108 -19.795245,0 -19.795245,0 0.139542,-23.83777 0.139541,-23.83777 73.743738,-0.14145 73.74373,-0.14145 0,23.97922 0,23.97922 -19.23749,0 -19.23749,0 0,44.05108 0,44.05108 -34.850544,0 -34.850537,0 0,-44.05108 z m 118.219421,-7.38819 c 0.3129,-56.43233 0.0589,-52.25373 3.6739,-60.43814 4.47914,-10.14081 13.8778,-18.35446 25.59415,-22.36716 l 4.46087,-1.52779 40.69637,-0.16616 c 44.57348,-0.182 45.04467,-0.15429 53.08927,3.1215 10.84303,4.41535 19.8171,14.13838 23.73647,25.7175 l 1.80613,5.33595 0.16147,50.88178 0.16147,50.88179 -34.87261,0 -34.8726,0 0,-17.28587 0,-17.28588 -6.97011,0 -6.97011,0 0,17.28588 0,17.28587 -34.98994,1.3e-4 -34.98994,1.3e-4 0.28521,-51.43952 z m 83.63489,-29.72049 c 0,-13.49467 -0.29066,-14.78594 -3.64358,-16.18688 -3.88795,-1.62449 -8.56803,-0.24798 -9.75293,2.86852 -0.29904,0.78654 -0.54371,6.80859 -0.54371,13.38235 l 0,11.95229 6.97011,0 6.97011,0 0,-12.01628 z m 113.67204,80.32884 c -8.1212,-1.64348 -14.89844,-5.32536 -21.06698,-11.44508 -4.446,-4.4108 -7.06373,-8.32199 -9.33751,-13.95131 -2.96692,-7.34536 -2.9518,-7.03733 -2.96223,-60.34144 l -0.01,-49.48776 35.40814,0 35.40815,0 0.003,46.42091 c 0.002,31.74875 0.19499,47.112 0.61018,48.60741 0.74589,2.68651 3.2924,5.34123 5.12351,5.34123 2.19183,0 4.19145,-2.00988 5.12407,-5.15032 0.73007,-2.45921 0.84868,-9.31096 0.84868,-49.03893 l 0,-46.1803 35.42497,0 35.42497,0 -0.16667,50.88178 c -0.15285,46.66417 -0.24815,51.15912 -1.14966,54.22744 -4.15974,14.15795 -14.33339,24.60731 -28.54938,29.32313 l -3.90326,1.29482 -41.26303,0.12405 c -32.74063,0.0984 -42.02818,-0.0308 -44.96761,-0.62563 z m 130.56053,-67.21953 0,-68.05043 63.70678,0.20123 c 55.71157,0.17597 64.19664,0.31242 67.61004,1.08721 10.30751,2.33964 16.0855,6.72103 18.51802,14.04202 0.80318,2.41724 0.97191,6.00728 1.1422,24.30413 0.21764,23.3822 0.20559,23.49237 -2.98148,27.27995 -2.31117,2.74671 -5.40239,3.97141 -13.45665,5.33137 -6.79647,1.1476 -8.56392,1.62691 -7.91531,2.14653 0.1278,0.10237 4.38877,0.55397 9.4688,1.00355 10.35017,0.91599 11.76727,1.46967 13.69615,5.35124 0.95223,1.91615 1.07156,4.09882 1.34992,24.68516 0.28817,21.31331 0.37399,22.78695 1.52623,26.20761 0.67147,1.99346 1.22412,3.81265 1.22808,4.04266 0.006,0.23001 -13.98182,0.41429 -31.07949,0.4095 -33.23838,-0.009 -35.50751,-0.17001 -39.16353,-2.77329 -3.56457,-2.53821 -3.88581,-4.18076 -3.89947,-19.94055 l -0.0123,-14.07962 -5.85489,0 -5.85489,0 0,18.40108 0,18.40109 -34.01413,0 -34.01412,0 0,-68.05044 z m 77.98424,-2.96708 c 2.23584,-2.14211 3.54187,-6.63376 3.55525,-12.22763 0.0128,-5.24101 -0.75188,-8.56069 -2.67178,-11.60198 -1.55221,-2.45894 -4.12474,-3.4798 -8.05142,-3.19511 l -2.50924,0.18193 -0.14961,13.65087 c -0.0823,7.50799 -0.0167,13.99744 0.14593,14.42098 0.22388,0.58353 1.23499,0.71701 4.17353,0.55097 3.32647,-0.18795 4.10986,-0.44115 5.50734,-1.78003 z m 116.90481,70.10164 c -7.24088,-1.57032 -14.43721,-5.39465 -20.15286,-10.7098 -5.03744,-4.68445 -9.4314,-12.12828 -11.5251,-19.52477 -1.18866,-4.19915 -1.20756,-4.94971 -1.37457,-54.58187 l -0.16934,-50.32417 35.41266,0 35.41266,0 0.15457,47.25733 0.15452,47.25732 1.39831,2.49733 c 2.35891,4.21281 5.63369,4.36139 8.58444,0.38948 1.16334,-1.56588 1.1702,-1.82338 1.32092,-49.49189 l 0.15145,-47.91782 35.5355,0.14352 35.53545,0.14353 0.15451,46.56032 c 0.0919,27.69617 -0.066,48.53558 -0.3896,51.43564 -0.63143,5.65735 -3.01304,13.00415 -5.69491,17.56782 -1.03208,1.75622 -4.00937,5.33828 -6.61619,7.96013 -5.12314,5.1527 -10.05876,8.1484 -17.56467,10.66106 l -3.90326,1.30664 -41.26304,0.10782 c -35.07587,0.0917 -41.84758,-0.0189 -45.16145,-0.73761 z m 144.25798,0.29502 c -5.91668,-0.98513 -9.40402,-3.83302 -11.05058,-9.02432 -0.73331,-2.31184 -0.97604,-6.1522 -1.19518,-18.90949 -0.15122,-8.80465 -0.11498,-16.64602 0.0806,-17.42526 l 0.35559,-1.4168 32.81025,0 32.8103,0 0.30947,2.99863 c 0.3644,3.53058 1.01212,4.71757 3.50736,6.42734 3.80546,2.60751 9.99692,1.97151 13.33861,-1.37017 3.12072,-3.12071 3.02408,-7.32159 -0.273,-11.87312 l -1.67796,-2.31637 -31.64083,-0.0112 c -17.40241,-0.006 -33.23888,-0.24225 -35.19218,-0.52463 -7.45456,-1.07771 -11.1761,-4.1517 -13.2823,-10.97123 -0.90182,-2.91995 -1.00938,-5.59485 -1.00592,-25.01629 0.006,-19.02553 0.12658,-22.19294 0.98496,-25.31255 2.68276,-9.75016 9.82166,-17.04584 19.23315,-19.65557 3.51237,-0.97394 6.80589,-1.03459 56.18062,-1.03459 56.76824,0 55.42318,-0.066 61.50853,3.01768 7.28264,3.69038 12.65074,10.29123 14.61492,17.97109 0.91643,3.58329 1.09514,6.1782 1.09514,15.90259 l 0,11.62058 -31.78369,0 -31.78369,0 0,-1.96954 c 0,-4.85918 -3.40794,-8.48339 -8.46428,-9.00145 -6.13464,-0.62855 -10.37196,1.97809 -10.90515,6.70838 -0.29787,2.64259 0.92134,5.98034 3.27958,8.97836 l 1.12665,1.43229 35.42336,-0.0226 c 33.35476,-0.0213 35.52553,0.037 37.17237,0.99879 2.01269,1.17547 3.95556,3.8424 4.91783,6.75046 0.89976,2.71907 1.3251,46.07873 0.49677,50.63817 -1.43389,7.89276 -7.53441,16.15212 -14.54371,19.69042 -6.89149,3.47881 -4.22428,3.34761 -66.60345,3.27615 -31.29406,-0.0358 -58.22399,-0.2859 -59.84417,-0.55567 z M 992.41234,464.22502 c -1.79478,-0.43601 -4.66674,-2.85966 -5.65633,-4.77336 -1.16758,-2.25785 -1.17745,-6.89207 -0.0195,-9.1314 1.94539,-3.7619 6.72811,-6.19732 10.70525,-5.4512 2.89434,0.54299 6.05374,3.10696 7.42614,6.02662 1.4406,3.06481 1.4839,3.9958 0.3175,6.83083 -2.1865,5.31474 -7.18268,7.85663 -12.7731,6.49851 z m 6.85841,-2.05596 c 4.95745,-2.57939 6.13475,-8.91452 2.41375,-12.98856 -4.3554,-4.76852 -12.28911,-2.66268 -14.00721,3.71794 -1.07217,3.98172 0.88353,7.72503 5.01385,9.59665 1.46066,0.66188 5.01982,0.48552 6.57961,-0.32603 z m -7.69483,-7.5807 0,-5.57609 3.22159,0 c 3.72633,0 5.70019,1.06541 5.70019,3.07675 0,0.73737 -0.52057,1.82564 -1.1568,2.41838 l -1.15676,1.07769 1.16808,2.28968 1.16808,2.28968 -1.39402,0 c -1.06492,0 -1.66257,-0.52648 -2.53188,-2.23044 -0.62586,-1.22674 -1.38371,-2.23043 -1.68415,-2.23043 -0.30044,0 -0.54628,1.00369 -0.54628,2.23043 0,2.00739 -0.13941,2.23044 -1.39403,2.23044 -1.39402,0 -1.39402,0 -1.39402,-5.57609 z m 5.25167,-0.89607 c 1.94031,-0.74457 0.68168,-3.00719 -1.67282,-3.00719 -0.50693,0 -0.7908,0.60048 -0.7908,1.67282 0,1.6914 0.63578,2.03577 2.46362,1.33437 z"
     id="path4335"
     inkscape:connector-curvature="0" />
</svg>
